<svg width="48" height="48" viewBox="0 0 48 48" fill="none" xmlns="http://www.w3.org/2000/svg">
<path d="M24 44.5714C32.52 44.5714 39.4286 41.1172 39.4286 36.8572V31.7143H8.57143V36.8572C8.57143 41.1172 15.48 44.5714 24 44.5714Z" fill="url(#paint0_linear_34_2)"/>
<path d="M24 39.4286C32.521 39.4286 39.4286 35.9748 39.4286 31.7143C39.4286 27.4538 32.521 24 24 24C15.479 24 8.57143 27.4538 8.57143 31.7143C8.57143 35.9748 15.479 39.4286 24 39.4286Z" fill="url(#paint1_linear_34_2)"/>
<path d="M24 34.2857C32.52 34.2857 39.4286 30.8314 39.4286 26.5714V21.4286H8.57143V26.5714C8.57143 30.8314 15.48 34.2857 24 34.2857Z" fill="url(#paint2_linear_34_2)"/>
<path d="M24 29.1429C32.521 29.1429 39.4286 25.6891 39.4286 21.4286C39.4286 17.1681 32.521 13.7143 24 13.7143C15.479 13.7143 8.57143 17.1681 8.57143 21.4286C8.57143 25.6891 15.479 29.1429 24 29.1429Z" fill="url(#paint3_linear_34_2)"/>
<path d="M24 24C32.52 24 39.4286 20.5457 39.4286 16.2857V11.1429H8.57143V16.2857C8.57143 20.5457 15.48 24 24 24Z" fill="url(#paint4_linear_34_2)"/>
<path d="M24 18.8571C32.521 18.8571 39.4286 15.4033 39.4286 11.1429C39.4286 6.88238 32.521 3.42857 24 3.42857C15.479 3.42857 8.57143 6.88238 8.57143 11.1429C8.57143 15.4033 15.479 18.8571 24 18.8571Z" fill="url(#paint5_linear_34_2)"/>
<defs>
<linearGradient id="paint0_linear_34_2" x1="16.7554" y1="34.8686" x2="21.2263" y2="45.6103" gradientUnits="userSpaceOnUse">
<stop stop-color="#FFA43D"/>
<stop offset="1" stop-color="#FB5937"/>
</linearGradient>
<linearGradient id="paint1_linear_34_2" x1="39.4731" y1="39.4234" x2="26.1669" y2="17.6537" gradientUnits="userSpaceOnUse">
<stop stop-color="#FF8A69"/>
<stop offset="1" stop-color="#FFCD0F"/>
</linearGradient>
<linearGradient id="paint2_linear_34_2" x1="16.7554" y1="24.5846" x2="21.2263" y2="35.3246" gradientUnits="userSpaceOnUse">
<stop stop-color="#FFA43D"/>
<stop offset="1" stop-color="#FB5937"/>
</linearGradient>
<linearGradient id="paint3_linear_34_2" x1="39.4731" y1="29.1377" x2="26.1669" y2="7.36801" gradientUnits="userSpaceOnUse">
<stop stop-color="#FF8A69"/>
<stop offset="1" stop-color="#FFCD0F"/>
</linearGradient>
<linearGradient id="paint4_linear_34_2" x1="16.7554" y1="14.2989" x2="21.2263" y2="25.0389" gradientUnits="userSpaceOnUse">
<stop stop-color="#FFA43D"/>
<stop offset="1" stop-color="#FB5937"/>
</linearGradient>
<linearGradient id="paint5_linear_34_2" x1="39.4731" y1="18.8503" x2="26.1669" y2="-2.91771" gradientUnits="userSpaceOnUse">
<stop stop-color="#FF8A69"/>
<stop offset="1" stop-color="#FFCD0F"/>
</linearGradient>
</defs>
</svg>
